<?xml version="1.0" standalone="no"?>
<!DOCTYPE svg PUBLIC "-//W3C//DTD SVG 20010904//EN"
 "http://www.w3.org/TR/2001/REC-SVG-20010904/DTD/svg10.dtd">
<svg version="1.0" xmlns="http://www.w3.org/2000/svg"
 width="200.000000pt" height="200.000000pt" viewBox="0 0 200.000000 200.000000"
 preserveAspectRatio="xMidYMid meet">
<metadata>
Created by potrace 1.14, written by Peter Selinger 2001-2017
</metadata>
<g transform="translate(0.000000,200.000000) scale(0.100000,-0.100000)"
fill="#000000" stroke="none">
<path d="M970 1997 c-3 -3 -46 -11 -95 -17 -290 -37 -557 -100 -578 -136 -4
-7 -14 -11 -21 -8 -7 3 -16 -1 -19 -9 -4 -10 -14 -13 -32 -10 -16 4 -33 -1
-44 -11 -10 -9 -20 -14 -23 -10 -8 7 -75 -21 -93 -40 -8 -8 -20 -16 -26 -18
-6 -2 -15 -26 -19 -53 -6 -42 -5 -51 13 -65 17 -14 18 -20 7 -39 -10 -19 -9
-25 1 -32 22 -14 37 -11 51 10 9 12 24 18 46 16 17 -1 32 1 32 4 0 10 52 31
62 25 4 -3 30 1 56 9 26 9 54 16 62 16 8 0 30 4 48 7 28 6 31 4 26 -12 -4 -11
-13 -26 -20 -34 -7 -8 -16 -27 -19 -42 -4 -16 -13 -28 -21 -28 -14 0 -104
-175 -104 -203 0 -9 -7 -20 -16 -25 -9 -5 -17 -24 -19 -42 -1 -17 -7 -35 -13
-39 -5 -3 -13 -28 -18 -56 -4 -27 -14 -63 -23 -80 -10 -16 -18 -43 -19 -59 -1
-17 -6 -32 -11 -35 -5 -3 -12 -30 -16 -58 -4 -29 -10 -53 -15 -53 -4 0 -7 -11
-6 -25 0 -14 4 -25 9 -25 4 0 7 -7 7 -16 0 -8 -4 -13 -9 -9 -16 9 -32 -30 -19
-43 9 -9 9 -12 -1 -12 -7 0 -11 -6 -8 -15 4 -8 1 -17 -4 -21 -6 -3 -9 -15 -6
-25 3 -10 -1 -23 -8 -29 -7 -5 -13 -36 -14 -68 -4 -98 -6 -117 -13 -122 -11
-8 -17 -160 -6 -160 5 0 4 -9 -2 -20 -8 -14 -8 -20 0 -20 7 0 9 -13 4 -35 -4
-24 -2 -35 5 -35 7 0 9 -5 6 -10 -3 -6 1 -13 10 -16 13 -5 15 -15 11 -39 -5
-24 -2 -36 13 -49 11 -10 24 -15 30 -12 5 4 12 2 16 -4 4 -6 10 -8 15 -5 4 3
10 -4 13 -15 8 -31 22 -24 35 16 8 27 8 41 -1 55 -10 16 -9 21 2 28 8 5 10 14
6 21 -5 8 -1 18 9 26 12 8 21 33 25 71 4 32 15 72 24 90 9 18 17 41 17 52 0
24 23 113 40 156 11 28 18 61 22 110 1 11 7 26 14 32 7 7 10 22 7 33 -3 11 0
20 6 20 6 0 11 9 11 19 0 11 4 22 9 25 5 3 12 27 16 53 4 27 11 56 17 66 5 10
11 26 13 35 8 37 34 133 39 141 7 11 62 218 71 266 4 22 15 59 26 82 10 23 19
60 19 83 0 23 6 47 13 53 24 22 58 38 68 32 5 -4 31 0 57 8 26 9 54 16 62 16
8 0 30 4 48 7 32 6 32 6 21 -20 -7 -14 -15 -26 -19 -26 -4 0 -11 -16 -14 -35
-4 -20 -13 -35 -21 -35 -15 0 -105 -175 -105 -203 0 -9 -7 -20 -16 -25 -9 -5
-17 -24 -19 -42 -1 -17 -7 -35 -14 -39 -6 -4 -14 -29 -18 -57 -3 -27 -15 -64
-25 -82 -10 -18 -18 -46 -18 -62 0 -17 -4 -30 -9 -30 -5 0 -12 -25 -16 -55 -3
-30 -10 -55 -15 -55 -4 0 -7 -11 -6 -25 0 -14 4 -25 9 -25 4 0 7 -4 7 -10 0
-5 -6 -10 -14 -10 -18 0 -27 -35 -13 -49 8 -8 7 -11 -2 -11 -7 0 -11 -6 -8
-15 4 -8 1 -17 -4 -21 -6 -3 -9 -15 -6 -25 3 -10 -1 -23 -9 -30 -8 -6 -14 -25
-13 -43 0 -69 -6 -146 -13 -146 -5 0 -8 -18 -8 -39 0 -22 -5 -43 -10 -46 -7
-4 -7 -11 -2 -18 5 -7 8 -31 7 -54 0 -24 3 -43 7 -43 4 0 5 -14 1 -31 -4 -22
0 -38 16 -60 14 -19 19 -37 16 -52 -7 -25 26 -64 44 -53 5 4 12 2 16 -4 4 -6
10 -8 15 -5 4 3 10 -4 13 -15 8 -31 22 -24 35 16 8 27 8 41 -1 55 -10 16 -9
21 2 28 8 5 10 14 6 21 -5 8 -1 18 9 25 10 8 19 33 23 66 3 30 12 66 19 80 7
15 21 62 30 105 8 43 20 87 25 96 10 19 30 100 32 133 0 11 7 26 14 33 7 8 11
18 8 22 -3 5 -1 18 5 30 5 11 14 28 19 38 5 10 12 38 16 62 4 25 12 56 18 70
5 14 11 32 13 40 4 19 22 84 39 135 21 63 56 194 71 264 7 35 18 69 24 76 6 7
15 50 20 96 10 84 6 98 -26 99 -12 0 -28 29 -20 37 4 5 228 38 356 53 47 6
112 15 145 20 33 6 69 10 80 9 37 -1 -26 -21 -74 -23 -29 -2 -48 -9 -57 -21
-8 -10 -14 -14 -14 -8 0 6 -9 9 -20 6 -11 -3 -20 -9 -20 -13 0 -5 -9 -6 -20
-3 -10 3 -35 -4 -53 -16 -19 -12 -42 -21 -51 -21 -9 0 -25 -9 -36 -20 -11 -11
-24 -20 -29 -20 -19 0 -124 -117 -147 -163 -29 -60 -28 -57 -6 -57 16 -1 16
-1 -1 -11 -24 -14 -13 -27 18 -21 15 2 25 0 25 -7 0 -7 -4 -10 -9 -6 -6 3 -15
-4 -22 -16 -16 -30 7 -44 39 -23 18 12 27 13 35 5 8 -8 8 -11 -1 -11 -7 0 -12
-6 -12 -13 0 -7 -9 -33 -21 -56 -11 -24 -18 -49 -15 -57 3 -8 1 -14 -4 -14 -5
0 -13 -12 -16 -27 -4 -15 -13 -38 -20 -52 -8 -14 -14 -41 -14 -58 0 -18 -4
-33 -10 -33 -5 0 -12 -17 -15 -37 -4 -21 -11 -51 -16 -68 -5 -16 -10 -42 -11
-57 -1 -16 -5 -28 -9 -28 -4 0 -7 -23 -7 -50 -1 -28 -4 -55 -8 -61 -3 -6 -8
-32 -9 -58 -1 -25 -9 -98 -17 -161 -9 -67 -12 -122 -7 -132 5 -9 8 -27 7 -40
-3 -38 21 -95 40 -95 9 0 21 5 25 11 5 6 6 -5 4 -25 -5 -32 -2 -38 21 -50 15
-8 30 -18 33 -22 3 -4 19 -9 34 -10 l29 -2 17 99 c9 54 22 108 28 120 10 20
28 87 54 205 7 30 18 56 25 59 6 2 12 14 12 27 0 35 19 44 70 35 133 -25 332
-18 364 11 6 5 16 9 23 9 25 0 116 74 167 136 28 35 66 93 84 131 19 37 38 77
44 87 5 10 12 71 15 135 5 104 3 127 -21 221 -37 143 -77 209 -166 281 -58 46
-75 55 -130 65 -61 11 -62 12 -84 13 -13 1 -16 4 -10 10 8 9 270 34 297 28 6
-1 14 20 19 48 15 97 -24 133 -167 155 -80 12 -745 27 -755 17z m704 -529 c53
-15 127 -61 144 -88 11 -17 9 -32 -13 -93 -22 -64 -33 -80 -103 -147 -44 -41
-85 -80 -93 -85 -8 -6 -33 -25 -56 -43 -73 -57 -232 -119 -246 -95 -3 4 -8 30
-12 57 -7 43 -6 48 9 43 13 -5 15 -2 10 19 -5 18 0 32 17 50 18 19 23 35 22
67 -4 63 7 127 19 124 7 -1 16 12 21 28 5 17 13 39 18 50 4 11 11 31 14 45 21
81 19 80 118 80 49 0 108 -5 131 -12z"/>
</g>
</svg>
